<svg xmlns="http://www.w3.org/2000/svg" viewBox="0 0 24 24">
  <circle cx="12" cy="12" r="10" fill="none" stroke="currentColor" stroke-width="2"/>
  <path d="M17.5 9.1a3.4 3.4 0 0 1-1 .3 1.8 1.8 0 0 0 .8-1
           3.3 3.3 0 0 1-1.1.4A1.7 1.7 0 0 0 12.7 9a4.8 4.8 0 0 1-3.7-1.9
           1.7 1.7 0 0 0 .5 2.3 1.7 1.7 0 0 1-.8-.2v.1a1.7 1.7 0 0 0 1.4 1.7
           1.8 1.8 0 0 1-.8 0 1.7 1.7 0 0 0 1.6 1.2A3.4 3.4 0 0 1 8.5 14
           4.7 4.7 0 0 0 11.1 14.8c3.4 0 5.3-2.9 5.3-5.4v-.2a3.6 3.6 0 0 0 1.1-1.1z"
        fill="currentColor"/>
</svg>
